<svg width="425" height="417" viewBox="0 0 425 417" fill="none" xmlns="http://www.w3.org/2000/svg">
<g clip-path="url(#clip0_0_1)">
<path d="M23.0405 316.809C43.2108 324.446 63.1301 304.447 84.8526 310.501C96.7219 313.808 106.59 321.617 112.084 332.143C127.461 321.617 142.039 310.352 155.734 298.318C139.513 301.61 122.53 302.857 108.142 293.137C93.5035 283.238 87.4167 265.485 73.7516 254.526C68.943 250.666 75.0908 244.776 79.8385 246.784C92.7274 252.227 118.376 237.744 132.208 245.396C135.267 230.196 143.956 215.923 151.694 202.53C153.817 198.849 159.782 200.484 159.767 204.68C159.698 228.853 191.882 264.298 169.361 285.828C189.645 266.411 207.868 245.239 223.8 222.261C208.423 221.932 195.405 211.04 189.904 196.274C181.215 172.967 194.287 148.704 205.57 128.69C207.404 125.435 212.38 126.316 213.415 129.698C218.908 147.57 234.11 160.276 238.219 178.879C239.68 185.494 239.908 191.974 239.139 198.297C251.96 176.752 263.068 153.9 272.122 129.593C272.062 129.541 272.024 129.474 271.97 129.421C258.99 138.007 240.197 132.572 230.816 120.008C215.659 99.7093 223.268 73.1551 230.389 51.4756C231.546 47.9445 238.021 47.0636 238.622 51.4756C241.315 71.1021 273.005 86.742 280.188 105.965C281.215 102.643 282.12 99.2315 283.102 95.8721C281.344 94.7598 280.713 92.2514 283.079 90.8629C283.634 90.5419 284.228 90.2881 284.798 89.982C285.278 88.2351 285.841 86.5479 286.297 84.7786C286.236 84.7189 286.168 84.704 286.115 84.6442C285.742 84.2336 285.46 83.8007 285.103 83.3826C283.185 83.8753 281.336 82.2031 281.785 80.2024C281.839 79.9709 281.953 79.7619 282.014 79.5305C260.907 50.438 274.801 12.7528 308.469 -0.789328C310.234 -1.49854 312.554 -0.311545 313.452 1.19646C321.578 15.0074 326.706 36.1194 323.252 53.3196C334.178 48.161 347.288 47.407 359.21 48.273C364.072 48.6313 365.898 53.6182 362.977 57.1941C349.943 73.1327 342.601 95.9095 322.666 105.234C311.862 110.288 297.946 110.915 288.899 103.293C285.94 115.857 282.227 128.317 277.882 140.612C293.959 129.018 317.873 125.211 335.274 129.377C338.751 130.205 340.668 135.468 337.556 137.857C326.912 146.032 320.193 158.85 311.611 169.436C316.891 178.066 323.96 185.076 332.535 190.936C335.228 192.772 335.905 196.236 333.554 198.685C311.908 221.23 268.638 218.722 257.073 188.525C249.692 202.843 241.437 216.796 232.337 230.241C248.703 219.909 267.71 214.773 287.682 220.536C291.806 221.731 293.153 226.785 290.178 229.816C275.037 245.269 268.06 264.783 245.576 271.592C231.417 275.884 216.709 274.078 204.338 266.836C194.279 278.602 183.521 289.77 172.207 300.311C197.323 292.241 223.641 294.309 248.11 306.38C251.534 308.075 251.633 312.711 249.266 315.204C222.575 343.461 178.514 346.215 152.394 317.578C139.513 328.075 125.992 337.727 111.924 346.41C138.341 346.716 148.057 389.701 154.76 408.76C156.328 413.217 151.595 416.711 147.502 415.882C129.941 412.344 109.793 407.849 98.723 392.62C90.5133 381.325 88.4819 365.849 97.4295 354.89C78.2407 365.528 58.1312 374.36 37.2913 381.056C34.0197 382.109 31.7066 376.973 34.9098 375.517C55.1791 366.282 74.3831 355.98 92.6057 344.745C65.0855 348.433 32.2697 349.859 18.4144 322.7C16.984 319.9 19.434 315.443 23.0405 316.809ZM349.06 58.0601C339.352 58.1721 330.442 60.3445 320.604 61.9122C316.245 72.0502 307.814 79.7022 293.556 81.5909C293.518 82.2926 293.32 82.9496 292.985 83.5543C292.81 84.5472 292.582 85.5401 292.399 86.5255C295.899 85.137 299.437 83.8305 302.808 82.2105C309.275 79.1124 315.598 75.5962 321.746 71.9233C324.021 70.5646 326.798 73.8867 324.667 75.6335C315.271 83.3229 303.082 92.0349 290.665 95.3421C290.52 96.0364 290.406 96.7381 290.254 97.4399C317.85 109.101 334.406 78.6048 349.06 58.0601ZM291.524 58.5677C293.898 51.6698 294.91 44.7792 298.106 38.2097C298.616 37.1571 300.023 37.6349 300.381 38.5009C304.36 48.2282 301.309 64.5027 294.149 75.0662C317.18 58.8216 315.849 33.2826 307.099 9.02762C282.09 19.3746 274.702 47.0263 286.411 69.2133C288.283 65.7345 290.254 62.2631 291.524 58.5677ZM244.009 80.3741C239.794 76.3577 236.37 72.08 233.981 67.3321C230.42 78.8661 228.213 90.8927 231.987 102.531C237.739 120.269 256.487 128.809 272.366 117.186C272.564 117.044 272.754 116.999 272.944 116.91C259.736 112.729 246.991 103.099 243.491 89.3847C242.487 85.458 247.714 83.5244 249.943 86.7121C256 95.3645 262.467 102.8 271.529 107.906C266.287 96.7978 252.355 88.3172 244.009 80.3741ZM322.347 195.49C315.415 189.54 310.675 182.537 307.472 174.154C302.823 179.014 297.497 183.068 290.733 185.419C287.606 186.509 284.228 186.92 280.872 186.823C281.291 186.927 281.694 187.076 282.113 187.166C288.747 188.659 295.496 189.204 302.291 189.01C305.981 188.905 305.798 194.146 302.291 194.519C292.049 195.624 279.564 195.109 269.589 190.652C283.969 205.381 304.725 210.07 322.347 195.49ZM265.899 171.362C269.756 169.033 274.436 167.569 278.164 165.158C284.342 161.157 289.622 156.2 293.944 150.31C295.131 148.697 297.771 150.108 296.713 151.9C292.924 158.312 288.245 164.262 282.417 169.033C279.594 171.347 276.14 174.146 272.45 176.028C288.565 181.664 309.587 152.915 323.42 137.529C312.364 136.431 301.301 138.686 291.357 144.143C280.21 150.265 274.504 159.156 266.812 168.361C266.408 169.272 266.028 170.19 265.617 171.093C265.708 171.205 265.807 171.257 265.899 171.362ZM221.449 165.128C216.846 156.879 211.65 149.794 208.172 141.553C201.857 153.027 196.037 165.255 195.793 178.305C195.512 193.265 205.228 208.786 220.011 211.451C212.22 200.469 206.225 186.054 207.937 173.213C208.347 170.16 212.646 169.122 213.689 172.452C215.804 179.215 216.428 186.315 218.786 193.064C220.985 199.342 223.945 205.225 227.186 211.018C231.204 195.393 229.766 180.014 221.449 165.128ZM251.138 256.392C261.813 250.062 268.174 239.058 275.737 229.368C252.964 226.419 234.315 239.364 216.139 252.376C215.743 252.884 215.34 253.391 214.944 253.906C219.753 252.899 224.805 252.727 229.568 251.077C237.891 248.188 245.12 243.477 251.404 237.423C252.903 235.975 255.764 237.93 254.425 239.715C245.896 251.099 225.748 265.619 210.394 259.737C210.364 259.774 210.341 259.811 210.31 259.849C223.778 264.141 238.576 263.835 251.138 256.392ZM132.307 267.381C131.402 263.425 131.059 259.535 131.113 255.698C117.912 249.823 105.038 256.325 91.6546 257.609C96.1741 262.827 100.115 268.501 104.703 274.167C115.135 287.045 128.244 290.3 142.716 290.546C138.28 287.605 133.966 284.455 129.659 281.349C124.691 277.766 119.182 274.429 115.097 269.845C112.692 267.15 115.675 263.238 118.985 264.895C124.508 267.658 129.157 272.084 133.905 275.937C134.59 276.489 135.282 277.041 135.967 277.594C134.43 274.376 133.129 270.972 132.307 267.381ZM234.871 312.786C214.967 304.656 193.549 303.797 173.097 310.143C183.193 310.986 193.229 312.539 203.493 312.233C207.054 312.129 206.81 317.086 203.493 317.511C191.51 319.049 177.708 320.273 165.724 317.026C188.2 329.254 214.183 328.993 234.871 312.786ZM158.26 286.627C158.237 286.172 158.306 285.724 158.496 285.298C153.216 277.549 144.998 264.126 148.118 254.81C148.643 253.234 150.804 252.898 151.709 254.347C154.243 258.393 154.19 263.566 155.323 268.128C156.594 273.242 158.542 278.079 160.9 282.782C176.064 269.098 162.932 248.322 156.525 233.735C154.387 228.868 152.752 224.284 151.762 219.618C139.513 243.164 131.584 274.108 158.26 286.627ZM114.397 392.239C121.944 397.861 131.097 400.63 140.342 402.661C134.879 385.11 128.077 361.385 111.566 354.89C113.08 357.973 114.168 361.318 115.637 364.379C118.041 369.388 120.727 374.323 123.588 379.093C124.729 380.997 121.884 383.333 120.377 381.527C116.634 377.047 113.309 372.434 110.509 367.328C109.055 364.67 107.427 361.773 106.263 358.772C99.248 370.388 103.669 384.251 114.397 392.239ZM97.3687 337.877C90.0644 333.188 81.9157 329.978 73.4853 327.589C71.081 326.91 71.4462 323.028 74.094 323.185C85.9558 323.879 96.1969 329.142 104.627 337.1C104.871 336.936 105.114 336.772 105.358 336.615C94.1959 320.953 77.4037 314.099 57.5758 320.363C49.0085 323.065 41.301 326.216 33.1675 326.514C50.5759 340.4 75.0908 338.302 97.3687 337.877Z" fill="#61627A"/>
</g>
<defs>
<clipPath id="clip0_0_1">
<rect width="425" height="417" fill="white"/>
</clipPath>
</defs>
</svg>
