<svg width="425" height="417" viewBox="0 0 425 417" fill="none" xmlns="http://www.w3.org/2000/svg">
<g clip-path="url(#clip0_0_1)">
<path d="M359.339 316.809C339.169 324.446 319.249 304.447 297.527 310.501C285.658 313.808 275.789 321.617 270.296 332.143C254.919 321.617 240.341 310.352 226.645 298.318C242.867 301.61 259.849 302.857 274.237 293.137C288.876 283.238 294.963 265.485 308.628 254.526C313.437 250.666 307.289 244.776 302.541 246.784C289.652 252.227 264.004 237.744 250.171 245.396C247.113 230.196 238.424 215.923 230.686 202.53C228.563 198.849 222.598 200.484 222.613 204.68C222.681 228.853 190.497 264.298 213.019 285.828C192.734 266.411 174.512 245.239 158.579 222.261C173.956 221.932 186.974 211.04 192.475 196.274C201.164 172.967 188.093 148.704 176.809 128.69C174.976 125.435 170 126.316 168.965 129.698C163.471 147.57 148.27 160.276 144.161 178.879C142.7 185.494 142.472 191.974 143.24 198.297C130.42 176.752 119.311 153.9 110.257 129.593C110.318 129.541 110.356 129.474 110.409 129.421C123.389 138.007 142.183 132.572 151.564 120.008C166.72 99.7093 159.112 73.1551 151.99 51.4756C150.834 47.9445 144.359 47.0636 143.758 51.4756C141.064 71.1021 109.374 86.742 102.192 105.965C101.165 102.643 100.259 99.2315 99.2779 95.8721C101.035 94.7598 101.667 92.2514 99.3007 90.8629C98.7453 90.5419 98.1518 90.2881 97.5812 89.982C97.1018 88.2351 96.5388 86.5479 96.0823 84.7786C96.1431 84.7189 96.2116 84.704 96.2649 84.6442C96.6377 84.2336 96.9192 83.8007 97.2768 83.3826C99.1942 83.8753 101.043 82.2031 100.594 80.2024C100.541 79.9709 100.427 79.7619 100.366 79.5305C121.472 50.438 107.579 12.7528 73.9109 -0.789328C72.1457 -1.49854 69.8251 -0.311545 68.9273 1.19646C60.8013 15.0074 55.6731 36.1194 59.1274 53.3196C48.2015 48.161 35.0919 47.407 23.1693 48.273C18.3074 48.6313 16.4813 53.6182 19.403 57.1941C32.4365 73.1327 39.7788 95.9095 59.7133 105.234C70.5175 110.288 84.4335 110.915 93.4801 103.293C96.4399 115.857 100.153 128.317 104.497 140.612C88.4204 129.018 64.5067 125.211 47.1059 129.377C43.6287 130.205 41.7114 135.468 44.8233 137.857C55.4677 146.032 62.1861 158.85 70.7685 169.436C65.4882 178.066 58.4198 185.076 49.8449 190.936C47.1515 192.772 46.4743 196.236 48.8254 198.685C70.4718 221.23 113.742 218.722 125.307 188.525C132.687 202.843 140.942 216.796 150.042 230.241C133.676 219.909 114.67 214.773 94.6975 220.536C90.5737 221.731 89.2269 226.785 92.2019 229.816C107.343 245.269 114.32 264.783 136.803 271.592C150.963 275.884 165.67 274.078 178.042 266.836C188.1 278.602 198.859 289.77 210.173 300.311C185.057 292.241 158.739 294.309 134.27 306.38C130.846 308.075 130.747 312.711 133.113 315.204C159.804 343.461 203.865 346.215 229.986 317.578C242.867 328.075 256.387 337.727 270.456 346.41C244.039 346.716 234.323 389.701 227.619 408.76C226.052 413.217 230.785 416.711 234.878 415.882C252.439 412.344 272.586 407.849 283.657 392.62C291.866 381.325 293.898 365.849 284.95 354.89C304.139 365.528 324.248 374.36 345.088 381.056C348.36 382.109 350.673 376.973 347.47 375.517C327.2 366.282 307.996 355.98 289.774 344.745C317.294 348.433 350.11 349.859 363.965 322.7C365.396 319.9 362.946 315.443 359.339 316.809ZM33.3191 58.0601C43.0277 58.1721 51.9373 60.3445 61.7752 61.9122C66.1349 72.0502 74.5652 79.7022 88.8237 81.5909C88.8617 82.2926 89.0596 82.9496 89.3943 83.5543C89.5693 84.5472 89.7976 85.5401 89.9802 86.5255C86.4803 85.137 82.9423 83.8305 79.5717 82.2105C73.1044 79.1124 66.7816 75.5962 60.6339 71.9233C58.3589 70.5646 55.5818 73.8867 57.7122 75.6335C67.1088 83.3229 79.2978 92.0349 91.715 95.3421C91.8595 96.0364 91.9736 96.7381 92.1258 97.4399C64.5295 109.101 47.9732 78.6048 33.3191 58.0601ZM90.8552 58.5677C88.4813 51.6698 87.4694 44.7792 84.2738 38.2097C83.764 37.1571 82.3564 37.6349 81.9988 38.5009C78.0195 48.2282 81.0706 64.5027 88.2302 75.0662C65.1991 58.8216 66.5306 33.2826 75.2804 9.02762C100.29 19.3746 107.678 47.0263 95.9681 69.2133C94.0964 65.7345 92.1258 62.2631 90.8552 58.5677ZM138.371 80.3741C142.586 76.3577 146.01 72.08 148.399 67.3321C151.96 78.8661 154.166 90.8927 150.392 102.531C144.64 120.269 125.893 128.809 110.014 117.186C109.816 117.044 109.626 116.999 109.435 116.91C122.644 112.729 135.388 103.099 138.888 89.3847C139.892 85.458 134.665 83.5244 132.436 86.7121C126.38 95.3645 119.912 102.8 110.851 107.906C116.093 96.7978 130.024 88.3172 138.371 80.3741ZM60.0328 195.49C66.9642 189.54 71.7044 182.537 74.9076 174.154C79.5564 179.014 84.8824 183.068 91.6465 185.419C94.7736 186.509 98.1518 186.92 101.507 186.823C101.089 186.927 100.685 187.076 100.267 187.166C93.6323 188.659 86.8835 189.204 80.089 189.01C76.3989 188.905 76.5815 194.146 80.089 194.519C90.3302 195.624 102.816 195.109 112.791 190.652C98.4105 205.381 77.6543 210.07 60.0328 195.49ZM116.481 171.362C112.623 169.033 107.944 167.569 104.216 165.158C98.0377 161.157 92.7573 156.2 88.4357 150.31C87.2487 148.697 84.6085 150.108 85.6661 151.9C89.4552 158.312 94.1345 164.262 99.9627 169.033C102.785 171.347 106.24 174.146 109.93 176.028C93.8149 181.664 72.7924 152.915 58.96 137.529C70.0153 136.431 81.0782 138.686 91.0226 144.143C102.169 150.265 107.876 159.156 115.568 168.361C115.971 169.272 116.352 170.19 116.762 171.093C116.671 171.205 116.572 171.257 116.481 171.362ZM160.93 165.128C165.533 156.879 170.73 149.794 174.207 141.553C180.522 153.027 186.343 165.255 186.586 178.305C186.868 193.265 177.152 208.786 162.368 211.451C170.159 200.469 176.155 186.054 174.443 173.213C174.032 170.16 169.733 169.122 168.691 172.452C166.576 179.215 165.952 186.315 163.593 193.064C161.394 199.342 158.435 205.225 155.193 211.018C151.176 195.393 152.614 180.014 160.93 165.128ZM131.242 256.392C120.567 250.062 114.206 239.058 106.643 229.368C129.415 226.419 148.064 239.364 166.241 252.376C166.637 252.884 167.04 253.391 167.436 253.906C162.627 252.899 157.575 252.727 152.812 251.077C144.488 248.188 137.26 243.477 130.975 237.423C129.476 235.975 126.616 237.93 127.955 239.715C136.484 251.099 156.631 265.619 171.985 259.737C172.016 259.774 172.039 259.811 172.069 259.849C158.602 264.141 143.803 263.835 131.242 256.392ZM250.072 267.381C250.978 263.425 251.32 259.535 251.267 255.698C264.468 249.823 277.341 256.325 290.725 257.609C286.205 262.827 282.264 268.501 277.676 274.167C267.245 287.045 254.135 290.3 239.664 290.546C244.1 287.605 248.414 284.455 252.72 281.349C257.688 277.766 263.197 274.429 267.283 269.845C269.687 267.15 266.705 263.238 263.395 264.895C257.871 267.658 253.222 272.084 248.474 275.937C247.79 276.489 247.097 277.041 246.413 277.594C247.95 274.376 249.251 270.972 250.072 267.381ZM147.509 312.786C167.413 304.656 188.831 303.797 209.283 310.143C199.186 310.986 189.15 312.539 178.886 312.233C175.326 312.129 175.569 317.086 178.886 317.511C190.87 319.049 204.672 320.273 216.655 317.026C194.18 329.254 168.196 328.993 147.509 312.786ZM224.119 286.627C224.142 286.172 224.074 285.724 223.884 285.298C229.164 277.549 237.381 264.126 234.262 254.81C233.737 253.234 231.576 252.898 230.67 254.347C228.137 258.393 228.19 263.566 227.056 268.128C225.786 273.242 223.838 278.079 221.479 282.782C206.315 269.098 219.448 248.322 225.854 233.735C227.992 228.868 229.628 224.284 230.617 219.618C242.867 243.164 250.795 274.108 224.119 286.627ZM267.983 392.239C260.435 397.861 251.282 400.63 242.038 402.661C247.501 385.11 254.303 361.385 270.813 354.89C269.299 357.973 268.211 361.318 266.743 364.379C264.338 369.388 261.653 374.323 258.792 379.093C257.65 380.997 260.496 383.333 262.003 381.527C265.746 377.047 269.071 372.434 271.871 367.328C273.324 364.67 274.952 361.773 276.116 358.772C283.132 370.388 278.711 384.251 267.983 392.239ZM285.011 337.877C292.315 333.188 300.464 329.978 308.894 327.589C311.299 326.91 310.933 323.028 308.286 323.185C296.424 323.879 286.183 329.142 277.752 337.1C277.509 336.936 277.265 336.772 277.022 336.615C288.184 320.953 304.976 314.099 324.804 320.363C333.371 323.065 341.079 326.216 349.212 326.514C331.804 340.4 307.289 338.302 285.011 337.877Z" fill="#61627A"/>
</g>
<defs>
<clipPath id="clip0_0_1">
<rect width="425" height="417" fill="white"/>
</clipPath>
</defs>
</svg>
